<svg width="56" height="64" viewBox="0 0 56 64" fill="none" xmlns="http://www.w3.org/2000/svg">
<path d="M56 0L50.8983 57.1525L27.9657 63.5101L5.09634 57.1614L0 0H56Z" fill="#264DE4"/>
<path d="M46.5311 53.5132L50.8909 4.67383H28.0005V58.6506L46.5311 53.5132Z" fill="#2965F1"/>
<path d="M11.6831 25.874L12.3114 32.8846H27.9999V25.874H11.6831Z" fill="#EBEBEB"/>
<path d="M27.9997 11.6844H27.9755H10.4204L11.0577 18.6951H27.9997V11.6844Z" fill="#EBEBEB"/>
<path d="M28.0002 51.3754V44.0814L27.9694 44.0896L20.1617 41.9813L19.6626 36.39H15.8686H12.625L13.6072 47.3977L27.9679 51.3843L28.0002 51.3754Z" fill="#EBEBEB"/>
<path d="M36.6084 32.8846L35.7946 41.9769L27.9756 44.0873V51.381L42.3477 47.3977L42.4532 46.2133L44.1006 27.7567L44.2716 25.8741L45.5373 11.6844H27.9756V18.6951H37.8542L37.2163 25.8741H27.9756V32.8846H36.6084Z" fill="white"/>
</svg>
