<svg width="41" height="41" viewBox="0 0 41 41" fill="none" xmlns="http://www.w3.org/2000/svg">
<path d="M20.5369 0.153687C9.23748 0.153687 0.0748291 9.47085 0.0748291 20.9651C0.0748291 30.1602 5.93783 37.9614 14.068 40.7133C15.0907 40.9059 15.4661 40.2618 15.4661 39.7121C15.4661 39.2158 15.4471 37.5764 15.4383 35.8374C9.74575 37.0963 8.54455 33.3819 8.54455 33.3819C7.61375 30.9763 6.27261 30.3367 6.27261 30.3367C4.41608 29.045 6.41255 29.0715 6.41255 29.0715C8.46729 29.218 9.54922 31.2162 9.54922 31.2162C11.3742 34.3979 14.3361 33.478 15.5037 32.9463C15.6874 31.6015 16.2176 30.6827 16.8028 30.1633C12.2579 29.6371 7.48024 27.8526 7.48024 19.8781C7.48024 17.6059 8.27957 15.7494 9.58852 14.2919C9.37607 13.7674 8.67568 11.651 9.78675 8.78434C9.78675 8.78434 11.505 8.225 15.4153 10.9176C17.0475 10.4565 18.7979 10.2253 20.5369 10.2173C22.2758 10.2253 24.0276 10.4565 25.6629 10.9176C29.5684 8.225 31.2843 8.78434 31.2843 8.78434C32.3981 11.651 31.6973 13.7674 31.4849 14.2919C32.7969 15.7494 33.5908 17.6059 33.5908 19.8781C33.5908 27.8715 28.804 29.6316 24.2475 30.1468C24.9815 30.7926 25.6354 32.0592 25.6354 34.0008C25.6354 36.7851 25.6117 39.0263 25.6117 39.7121C25.6117 40.2659 25.9801 40.9149 27.0173 40.7105C35.143 37.9555 40.9986 30.1571 40.9986 20.9651C40.9986 9.47085 31.8373 0.153687 20.5369 0.153687Z" fill="#FFFFF0"/>
<path d="M7.82486 30.0345C7.77979 30.1382 7.61986 30.1689 7.47415 30.0979C7.32574 30.03 7.24238 29.889 7.2905 29.7853C7.33455 29.6788 7.49482 29.6495 7.6429 29.7202C7.79165 29.7884 7.87636 29.9307 7.82486 30.0345Z" fill="#FFFFF0"/>
<path d="M8.6537 30.9747C8.55611 31.0667 8.36534 31.0239 8.23591 30.8785C8.10206 30.7334 8.07699 30.5394 8.17593 30.446C8.27657 30.354 8.46158 30.397 8.59576 30.5421C8.7296 30.689 8.75569 30.8816 8.6537 30.9747Z" fill="#FFFFF0"/>
<path d="M9.46046 32.1732C9.33509 32.2618 9.13009 32.1787 9.00336 31.9936C8.87799 31.8086 8.87799 31.5866 9.00607 31.4977C9.13314 31.4088 9.33509 31.4887 9.46351 31.6724C9.58854 31.8603 9.58854 32.0825 9.46046 32.1732Z" fill="#FFFFF0"/>
<path d="M10.5657 33.3312C10.4535 33.457 10.2147 33.4232 10.0398 33.2516C9.8609 33.0837 9.81109 32.8456 9.92359 32.7198C10.0371 32.5937 10.2773 32.6292 10.4535 32.7994C10.6311 32.9669 10.6853 33.2068 10.5657 33.3312Z" fill="#FFFFF0"/>
<path d="M12.0905 34.0036C12.0411 34.1666 11.811 34.2407 11.5792 34.1715C11.3478 34.1001 11.1963 33.9092 11.2431 33.7445C11.2912 33.5804 11.5223 33.5032 11.7558 33.5773C11.9869 33.6483 12.1387 33.8379 12.0905 34.0036Z" fill="#FFFFF0"/>
<path d="M13.7652 34.1283C13.7709 34.3 13.5744 34.4423 13.3311 34.445C13.0865 34.4509 12.8886 34.312 12.8859 34.1431C12.8859 33.9698 13.078 33.8288 13.3226 33.8247C13.5659 33.8199 13.7652 33.9577 13.7652 34.1283Z" fill="#FFFFF0"/>
<path d="M15.3235 33.8584C15.3526 34.0259 15.1835 34.1979 14.9419 34.2434C14.7044 34.2879 14.4845 34.1845 14.4543 34.0184C14.4249 33.8467 14.597 33.6748 14.8342 33.6303C15.0761 33.5876 15.2926 33.6882 15.3235 33.8584Z" fill="#FFFFF0"/>
</svg>
