<svg width="41" height="41" viewBox="0 0 41 41" fill="none" xmlns="http://www.w3.org/2000/svg">
<path d="M20.5369 0.153809C9.23754 0.153809 0.0748901 9.47098 0.0748901 20.9652C0.0748901 30.1604 5.93789 37.9615 14.0681 40.7134C15.0907 40.906 15.4662 40.2619 15.4662 39.7122C15.4662 39.216 15.4472 37.5765 15.4384 35.8375C9.74581 37.0965 8.54461 33.382 8.54461 33.382C7.61381 30.9765 6.27267 30.3368 6.27267 30.3368C4.41615 29.0451 6.41261 29.0717 6.41261 29.0717C8.46735 29.2181 9.54928 31.2163 9.54928 31.2163C11.3743 34.398 14.3361 33.4781 15.5038 32.9464C15.6874 31.6016 16.2177 30.6828 16.8029 30.1635C12.258 29.6372 7.4803 27.8527 7.4803 19.8782C7.4803 17.6061 8.27963 15.7495 9.58858 14.2921C9.37613 13.7675 8.67574 11.6511 9.78681 8.78447C9.78681 8.78447 11.5051 8.22513 15.4153 10.9177C17.0475 10.4566 18.798 10.2254 20.5369 10.2175C22.2759 10.2254 24.0277 10.4566 25.663 10.9177C29.5685 8.22513 31.2844 8.78447 31.2844 8.78447C32.3981 11.6511 31.6974 13.7675 31.485 14.2921C32.797 15.7495 33.5909 17.6061 33.5909 19.8782C33.5909 27.8716 28.804 29.6317 24.2476 30.1469C24.9815 30.7928 25.6355 32.0593 25.6355 34.001C25.6355 36.7853 25.6118 39.0264 25.6118 39.7122C25.6118 40.2661 25.9801 40.915 27.0173 40.7106C35.1431 37.9556 40.9986 30.1573 40.9986 20.9652C40.9986 9.47098 31.8374 0.153809 20.5369 0.153809Z" fill="#B8A5FF"/>
<path d="M7.82492 30.0345C7.77985 30.1382 7.61992 30.1689 7.47421 30.0979C7.3258 30.03 7.24245 29.889 7.29056 29.7853C7.33461 29.6788 7.49488 29.6495 7.64296 29.7202C7.79171 29.7884 7.87642 29.9307 7.82492 30.0345Z" fill="#B8A5FF"/>
<path d="M8.65373 30.9748C8.55614 31.0668 8.36537 31.0241 8.23594 30.8786C8.10209 30.7335 8.07702 30.5395 8.17596 30.4461C8.2766 30.3541 8.46161 30.3972 8.59579 30.5423C8.72963 30.6891 8.75572 30.8817 8.65373 30.9748Z" fill="#B8A5FF"/>
<path d="M9.46049 32.1733C9.33512 32.2619 9.13012 32.1788 9.00339 31.9938C8.87802 31.8087 8.87802 31.5867 9.0061 31.4978C9.13317 31.4089 9.33512 31.4889 9.46354 31.6726C9.58857 31.8604 9.58857 32.0827 9.46049 32.1733Z" fill="#B8A5FF"/>
<path d="M10.5658 33.3314C10.4537 33.4572 10.2148 33.4234 10.0399 33.2518C9.86102 33.084 9.81121 32.8458 9.92371 32.72C10.0372 32.5939 10.2775 32.6294 10.4537 32.7996C10.6312 32.9671 10.6854 33.207 10.5658 33.3314Z" fill="#B8A5FF"/>
<path d="M12.0906 34.0036C12.0411 34.1666 11.8111 34.2407 11.5793 34.1715C11.3479 34.1001 11.1964 33.9092 11.2432 33.7445C11.2913 33.5804 11.5224 33.5032 11.7558 33.5773C11.9869 33.6483 12.1387 33.8379 12.0906 34.0036Z" fill="#B8A5FF"/>
<path d="M13.7652 34.1285C13.7709 34.3001 13.5744 34.4424 13.3311 34.4452C13.0865 34.451 12.8886 34.3121 12.8859 34.1433C12.8859 33.9699 13.078 33.829 13.3226 33.8248C13.5659 33.82 13.7652 33.9579 13.7652 34.1285Z" fill="#B8A5FF"/>
<path d="M15.3235 33.8586C15.3526 34.0261 15.1836 34.198 14.942 34.2435C14.7044 34.288 14.4845 34.1846 14.4544 34.0185C14.4249 33.8468 14.597 33.6749 14.8342 33.6304C15.0761 33.5877 15.2927 33.6883 15.3235 33.8586Z" fill="#B8A5FF"/>
</svg>
