<svg width="41" height="41" viewBox="0 0 41 41" fill="none" xmlns="http://www.w3.org/2000/svg">
<path d="M20.5368 0.153687C9.23736 0.153687 0.074707 9.47085 0.074707 20.9651C0.074707 30.1602 5.93771 37.9614 14.0679 40.7133C15.0905 40.9059 15.466 40.2618 15.466 39.7121C15.466 39.2158 15.447 37.5764 15.4382 35.8374C9.74562 37.0963 8.54443 33.3819 8.54443 33.3819C7.61362 30.9763 6.27248 30.3367 6.27248 30.3367C4.41596 29.045 6.41243 29.0715 6.41243 29.0715C8.46717 29.218 9.5491 31.2162 9.5491 31.2162C11.3741 34.3979 14.3359 33.478 15.5036 32.9463C15.6872 31.6015 16.2175 30.6827 16.8027 30.1633C12.2578 29.6371 7.48012 27.8526 7.48012 19.8781C7.48012 17.6059 8.27945 15.7494 9.5884 14.2919C9.37595 13.7674 8.67556 11.651 9.78662 8.78434C9.78662 8.78434 11.5049 8.225 15.4151 10.9176C17.0474 10.4565 18.7978 10.2253 20.5368 10.2173C22.2757 10.2253 24.0275 10.4565 25.6628 10.9176C29.5683 8.225 31.2842 8.78434 31.2842 8.78434C32.398 11.651 31.6972 13.7674 31.4848 14.2919C32.7968 15.7494 33.5907 17.6059 33.5907 19.8781C33.5907 27.8715 28.8038 29.6316 24.2474 30.1468C24.9814 30.7926 25.6353 32.0592 25.6353 34.0008C25.6353 36.7851 25.6116 39.0263 25.6116 39.7121C25.6116 40.2659 25.9799 40.9149 27.0171 40.7105C35.1429 37.9555 40.9985 30.1571 40.9985 20.9651C40.9985 9.47085 31.8372 0.153687 20.5368 0.153687Z" fill="black"/>
<path d="M7.82486 30.0345C7.77979 30.1382 7.61986 30.1689 7.47415 30.0979C7.32574 30.03 7.24238 29.889 7.2905 29.7853C7.33455 29.6788 7.49482 29.6495 7.6429 29.7202C7.79165 29.7884 7.87636 29.9307 7.82486 30.0345Z" fill="black"/>
<path d="M8.6537 30.9747C8.55611 31.0667 8.36534 31.0239 8.23591 30.8785C8.10206 30.7334 8.07699 30.5394 8.17593 30.446C8.27657 30.354 8.46158 30.397 8.59576 30.5421C8.7296 30.689 8.75569 30.8816 8.6537 30.9747Z" fill="black"/>
<path d="M9.46046 32.1732C9.33509 32.2618 9.13009 32.1787 9.00336 31.9936C8.87799 31.8086 8.87799 31.5866 9.00607 31.4977C9.13314 31.4088 9.33509 31.4887 9.46351 31.6724C9.58854 31.8603 9.58854 32.0825 9.46046 32.1732Z" fill="black"/>
<path d="M10.5658 33.3312C10.4537 33.457 10.2148 33.4232 10.0399 33.2516C9.86102 33.0837 9.81121 32.8456 9.92371 32.7198C10.0372 32.5937 10.2775 32.6292 10.4537 32.7994C10.6312 32.9669 10.6854 33.2068 10.5658 33.3312Z" fill="black"/>
<path d="M12.0903 34.0036C12.0408 34.1666 11.8108 34.2407 11.579 34.1715C11.3476 34.1001 11.1961 33.9092 11.2429 33.7445C11.291 33.5804 11.5221 33.5032 11.7555 33.5773C11.9866 33.6483 12.1384 33.8379 12.0903 34.0036Z" fill="black"/>
<path d="M13.765 34.1283C13.7708 34.3 13.5743 34.4423 13.331 34.445C13.0863 34.4509 12.8885 34.312 12.8857 34.1431C12.8857 33.9698 13.0779 33.8288 13.3225 33.8247C13.5658 33.8199 13.765 33.9577 13.765 34.1283Z" fill="black"/>
<path d="M15.3231 33.8584C15.3522 34.0259 15.1832 34.1979 14.9416 34.2434C14.704 34.2879 14.4841 34.1845 14.454 34.0184C14.4245 33.8467 14.5966 33.6748 14.8338 33.6303C15.0757 33.5876 15.2923 33.6882 15.3231 33.8584Z" fill="black"/>
</svg>
