<svg width="41" height="41" viewBox="0 0 41 41" fill="none" xmlns="http://www.w3.org/2000/svg">
<path d="M20.5372 0.153687C9.23785 0.153687 0.0751953 9.47085 0.0751953 20.9651C0.0751953 30.1602 5.93819 37.9614 14.0684 40.7133C15.091 40.9059 15.4665 40.2618 15.4665 39.7121C15.4665 39.2158 15.4475 37.5764 15.4387 35.8374C9.74611 37.0963 8.54491 33.3819 8.54491 33.3819C7.61411 30.9763 6.27297 30.3367 6.27297 30.3367C4.41645 29.045 6.41291 29.0715 6.41291 29.0715C8.46766 29.218 9.54958 31.2162 9.54958 31.2162C11.3746 34.3979 14.3364 33.478 15.5041 32.9463C15.6877 31.6015 16.218 30.6827 16.8032 30.1633C12.2583 29.6371 7.48061 27.8526 7.48061 19.8781C7.48061 17.6059 8.27994 15.7494 9.58889 14.2919C9.37643 13.7674 8.67605 11.651 9.78711 8.78434C9.78711 8.78434 11.5054 8.225 15.4156 10.9176C17.0478 10.4565 18.7983 10.2253 20.5372 10.2173C22.2762 10.2253 24.028 10.4565 25.6633 10.9176C29.5688 8.225 31.2847 8.78434 31.2847 8.78434C32.3984 11.651 31.6977 13.7674 31.4853 14.2919C32.7973 15.7494 33.5912 17.6059 33.5912 19.8781C33.5912 27.8715 28.8043 29.6316 24.2479 30.1468C24.9818 30.7926 25.6358 32.0592 25.6358 34.0008C25.6358 36.7851 25.6121 39.0263 25.6121 39.7121C25.6121 40.2659 25.9804 40.9149 27.0176 40.7105C35.1434 37.9555 40.999 30.1571 40.999 20.9651C40.999 9.47085 31.8377 0.153687 20.5372 0.153687Z" fill="#FFFFF0"/>
<path d="M7.82534 30.0345C7.78028 30.1382 7.62034 30.1689 7.47464 30.0979C7.32623 30.03 7.24287 29.889 7.29099 29.7853C7.33504 29.6788 7.49531 29.6495 7.64339 29.7202C7.79214 29.7884 7.87685 29.9307 7.82534 30.0345Z" fill="#FFFFF0"/>
<path d="M8.65419 30.9747C8.5566 31.0667 8.36583 31.0239 8.23639 30.8785C8.10255 30.7334 8.07748 30.5394 8.17642 30.446C8.27706 30.354 8.46206 30.397 8.59625 30.5421C8.73009 30.689 8.75618 30.8816 8.65419 30.9747Z" fill="#FFFFF0"/>
<path d="M9.46095 32.1732C9.33558 32.2618 9.13058 32.1787 9.00385 31.9936C8.87848 31.8086 8.87848 31.5866 9.00656 31.4977C9.13363 31.4088 9.33558 31.4887 9.464 31.6724C9.58903 31.8603 9.58903 32.0825 9.46095 32.1732Z" fill="#FFFFF0"/>
<path d="M10.5663 33.3312C10.4541 33.457 10.2153 33.4232 10.0404 33.2516C9.86151 33.0837 9.8117 32.8456 9.9242 32.7198C10.0377 32.5937 10.278 32.6292 10.4541 32.7994C10.6317 32.9669 10.6859 33.2068 10.5663 33.3312Z" fill="#FFFFF0"/>
<path d="M12.0913 34.0036C12.0418 34.1666 11.8117 34.2407 11.58 34.1715C11.3485 34.1001 11.1971 33.9092 11.2438 33.7445C11.2919 33.5804 11.523 33.5032 11.7565 33.5773C11.9876 33.6483 12.1394 33.8379 12.0913 34.0036Z" fill="#FFFFF0"/>
<path d="M13.765 34.1283C13.7708 34.3 13.5743 34.4423 13.331 34.445C13.0863 34.4509 12.8885 34.312 12.8857 34.1431C12.8857 33.9698 13.0779 33.8288 13.3225 33.8247C13.5658 33.8199 13.765 33.9577 13.765 34.1283Z" fill="#FFFFF0"/>
<path d="M15.3236 33.8584C15.3527 34.0259 15.1837 34.1979 14.9421 34.2434C14.7045 34.2879 14.4846 34.1845 14.4545 34.0184C14.425 33.8467 14.5971 33.6748 14.8343 33.6303C15.0762 33.5876 15.2928 33.6882 15.3236 33.8584Z" fill="#FFFFF0"/>
</svg>
