<svg width="41" height="41" viewBox="0 0 41 41" fill="none" xmlns="http://www.w3.org/2000/svg">
<path d="M20.9182 16.7726V24.7117H32.1762C31.6818 27.2649 30.1983 29.4268 27.9734 30.8804L34.7624 36.0427C38.7179 32.4646 40.9999 27.2091 40.9999 20.966C40.9999 19.5124 40.8669 18.1145 40.6196 16.7728L20.9182 16.7726Z" fill="white"/>
<path d="M9.19486 24.4019L7.66368 25.5505L2.24377 29.6877C5.68582 36.3781 12.7406 41 20.9178 41C26.5656 41 31.3008 39.1736 34.7619 36.0428L27.9729 30.8805C26.1093 32.1105 23.7322 32.856 20.9178 32.856C15.479 32.856 10.858 29.2592 9.20341 24.4137L9.19486 24.4019Z" fill="white"/>
<path d="M2.24383 11.3123C0.817641 14.0703 0 17.1826 0 20.4999C0 23.8171 0.817641 26.9294 2.24383 29.6875C2.24383 29.706 9.20413 24.3947 9.20413 24.3947C8.78577 23.1647 8.53848 21.8603 8.53848 20.4996C8.53848 19.139 8.78577 17.8345 9.20413 16.6046L2.24383 11.3123Z" fill="white"/>
<path d="M20.9182 8.16272C23.999 8.16272 26.7374 9.20633 28.9243 11.2191L34.9146 5.34871C31.2823 2.03149 26.5663 0 20.9182 0C12.741 0 5.68582 4.60317 2.24377 11.3123L9.20386 16.605C10.8582 11.7595 15.4794 8.16272 20.9182 8.16272Z" fill="white"/>
</svg>
