<svg width="41" height="41" viewBox="0 0 41 41" fill="none" xmlns="http://www.w3.org/2000/svg">
<path d="M20.918 16.7726V24.7117H32.1759C31.6816 27.2649 30.1981 29.4268 27.9731 30.8804L34.7621 36.0427C38.7177 32.4646 40.9997 27.2091 40.9997 20.966C40.9997 19.5124 40.8666 18.1145 40.6193 16.7728L20.918 16.7726Z" fill="white"/>
<path d="M9.19522 24.4019L7.66405 25.5505L2.24414 29.6877C5.68619 36.3781 12.7409 41 20.9181 41C26.566 41 31.3012 39.1736 34.7623 36.0428L27.9733 30.8805C26.1097 32.1105 23.7325 32.856 20.9181 32.856C15.4793 32.856 10.8584 29.2592 9.20377 24.4137L9.19522 24.4019Z" fill="white"/>
<path d="M2.24383 11.3123C0.817641 14.0703 0 17.1826 0 20.4999C0 23.8171 0.817641 26.9294 2.24383 29.6875C2.24383 29.706 9.20413 24.3947 9.20413 24.3947C8.78577 23.1647 8.53848 21.8603 8.53848 20.4996C8.53848 19.139 8.78577 17.8345 9.20413 16.6046L2.24383 11.3123Z" fill="white"/>
<path d="M20.9186 8.16272C23.9993 8.16272 26.7377 9.20633 28.9247 11.2191L34.9149 5.34871C31.2827 2.03149 26.5667 0 20.9186 0C12.7414 0 5.68619 4.60317 2.24414 11.3123L9.20423 16.605C10.8586 11.7595 15.4798 8.16272 20.9186 8.16272Z" fill="white"/>
</svg>
