<svg width="41" height="41" viewBox="0 0 41 41" fill="none" xmlns="http://www.w3.org/2000/svg">
<path d="M20.9183 16.7727V24.7118H32.1762C31.6819 27.265 30.1984 29.4269 27.9735 30.8805L34.7625 36.0428C38.718 32.4648 41 27.2092 41 20.9661C41 19.5125 40.8669 18.1146 40.6196 16.7729L20.9183 16.7727Z" fill="#B8A5FF"/>
<path d="M9.19489 24.4019L7.66371 25.5505L2.2438 29.6877C5.68585 36.3781 12.7406 41 20.9178 41C26.5657 41 31.3008 39.1736 34.762 36.0428L27.973 30.8805C26.1093 32.1105 23.7322 32.856 20.9178 32.856C15.479 32.856 10.858 29.2592 9.20344 24.4137L9.19489 24.4019Z" fill="#B8A5FF"/>
<path d="M2.24383 11.3123C0.817641 14.0703 0 17.1826 0 20.4999C0 23.8171 0.817641 26.9294 2.24383 29.6875C2.24383 29.706 9.20413 24.3947 9.20413 24.3947C8.78577 23.1647 8.53848 21.8603 8.53848 20.4996C8.53848 19.139 8.78577 17.8345 9.20413 16.6046L2.24383 11.3123Z" fill="#B8A5FF"/>
<path d="M20.9182 8.16272C23.999 8.16272 26.7374 9.20633 28.9243 11.2191L34.9146 5.34871C31.2824 2.03149 26.5663 0 20.9182 0C12.741 0 5.68585 4.60317 2.2438 11.3123L9.20389 16.605C10.8583 11.7595 15.4794 8.16272 20.9182 8.16272Z" fill="#B8A5FF"/>
</svg>
