<svg width="41" height="41" viewBox="0 0 41 41" fill="none" xmlns="http://www.w3.org/2000/svg">
<path d="M20.9185 16.7726V24.7117H32.1764C31.6821 27.2649 30.1986 29.4268 27.9736 30.8804L34.7626 36.0427C38.7181 32.4646 41.0002 27.2091 41.0002 20.966C41.0002 19.5124 40.8671 18.1145 40.6198 16.7728L20.9185 16.7726Z" fill="black"/>
<path d="M9.19473 24.402L7.66356 25.5506L2.24365 29.6878C5.6857 36.3782 12.7404 41.0001 20.9176 41.0001C26.5655 41.0001 31.3007 39.1737 34.7618 36.0429L27.9728 30.8806C26.1092 32.1106 23.732 32.8561 20.9176 32.8561C15.4788 32.8561 10.8579 29.2593 9.20329 24.4138L9.19473 24.402Z" fill="black"/>
<path d="M2.24383 11.3123C0.817641 14.0703 0 17.1826 0 20.4999C0 23.8171 0.817641 26.9294 2.24383 29.6875C2.24383 29.706 9.20413 24.3947 9.20413 24.3947C8.78577 23.1647 8.53848 21.8603 8.53848 20.4996C8.53848 19.139 8.78577 17.8345 9.20413 16.6046L2.24383 11.3123Z" fill="black"/>
<path d="M20.9181 8.16272C23.9989 8.16272 26.7372 9.20633 28.9242 11.2191L34.9144 5.34871C31.2822 2.03149 26.5662 0 20.9181 0C12.7409 0 5.6857 4.60317 2.24365 11.3123L9.20374 16.605C10.8581 11.7595 15.4793 8.16272 20.9181 8.16272Z" fill="black"/>
</svg>
