<svg width="56" height="56" viewBox="0 0 56 56" fill="none" xmlns="http://www.w3.org/2000/svg">
<path d="M56 0H0V55.6889H56V0Z" fill="#F7DF1E"/>
<path d="M37.6175 43.5071C38.7455 45.3387 40.2131 46.6849 42.8086 46.6849C44.9891 46.6849 46.382 45.6012 46.382 44.1038C46.382 42.3094 44.9509 41.6738 42.5509 40.6299L41.2353 40.0686C37.438 38.4598 34.9153 36.4444 34.9153 32.1837C34.9153 28.259 37.9224 25.2712 42.622 25.2712C45.9677 25.2712 48.3731 26.4292 50.1064 29.4612L46.0086 32.0777C45.1064 30.4689 44.1331 29.8351 42.622 29.8351C41.0806 29.8351 40.1037 30.8074 40.1037 32.0777C40.1037 33.6476 41.0815 34.2831 43.3393 35.2555L44.6549 35.8159C49.126 37.7226 51.6504 39.6664 51.6504 44.0366C51.6504 48.7481 47.9286 51.3292 42.9304 51.3292C38.0433 51.3292 34.886 49.0133 33.3411 45.9778L37.6175 43.5071ZM19.0282 43.9606C19.8549 45.4191 20.6069 46.6522 22.4149 46.6522C24.1437 46.6522 25.2344 45.9796 25.2344 43.3639V25.57H30.4966V43.4347C30.4966 48.8533 27.302 51.3195 22.6389 51.3195C18.4255 51.3195 15.9855 49.1512 14.7446 46.5395L19.0282 43.9606Z" fill="black"/>
</svg>
