<svg width="41" height="41" viewBox="0 0 41 41" fill="none" xmlns="http://www.w3.org/2000/svg">
<path fill-rule="evenodd" clip-rule="evenodd" d="M41 20.5C41 31.8218 31.8218 41 20.5 41C9.17816 41 0 31.8218 0 20.5C0 9.17816 9.17816 0 20.5 0C31.8218 0 41 9.17816 41 20.5ZM13.7278 18.6221C11.6742 19.5187 9.56417 20.44 7.63476 21.5028L7.63462 21.5029C6.62714 22.2405 7.96629 22.7623 9.22249 23.2517C9.4222 23.3295 9.61981 23.4065 9.80557 23.4834C9.96015 23.5309 10.1174 23.581 10.2766 23.6317C11.6738 24.0768 13.2317 24.5732 14.588 23.8265C16.8162 22.5466 18.9189 21.0668 21.0201 19.5881C21.7085 19.1037 22.3967 18.6194 23.0891 18.1422C23.1215 18.1215 23.1581 18.0977 23.1981 18.0718C23.788 17.6895 25.1145 16.8296 24.6239 18.0144C23.4635 19.2834 22.2206 20.4067 20.971 21.5361C20.1289 22.2972 19.2836 23.0612 18.4585 23.8743C17.7398 24.4583 16.9936 25.6325 17.7983 26.4502C19.6517 27.7477 21.5341 29.0138 23.4155 30.2791C24.0277 30.6909 24.6398 31.1025 25.2507 31.5152C26.2862 32.3419 27.9044 31.6732 28.132 30.3814C28.2332 29.7872 28.3349 29.1929 28.4365 28.5987C28.9982 25.3147 29.5601 22.0295 30.0564 18.7348C30.1239 18.2181 30.2004 17.7013 30.2769 17.1842C30.4623 15.9311 30.648 14.6764 30.706 13.4165C30.5565 12.1592 29.032 12.4356 28.1836 12.7183C23.8229 14.3776 19.5058 16.1599 15.2057 17.9737C14.7186 18.1895 14.2249 18.4051 13.7278 18.6221Z" fill="#FFFFF0"/>
</svg>
